<?xml version="1.0" encoding="utf-8"?>
<!-- Generator: Adobe Illustrator 24.1.2, SVG Export Plug-In . SVG Version: 6.00 Build 0)  -->
<svg version="1.1" id="Layer_1" xmlns:svgjs="http://svgjs.com/svgjs"
	 xmlns="http://www.w3.org/2000/svg" xmlns:xlink="http://www.w3.org/1999/xlink" x="0px" y="0px" viewBox="0 0 512 512"
	 style="enable-background:new 0 0 512 512;" xml:space="preserve">
<style type="text/css">
	.st0{fill:#7F7F7F;}
</style>
<g>
	<path class="st0" d="M256,0C114.8,0,0,114.8,0,256s114.8,256,256,256s256-114.8,256-256S397.2,0,256,0z M422.8,120.7
		c28.7,35.4,46.4,80,47.9,128.7c-53.2-11-101.4-9.7-144-1.4c-7.7-18-15.7-35.2-23.7-51.4C349.3,176.7,389.7,151.2,422.8,120.7z
		 M394,91.4c-32.9,30-71,52.3-110,68.7c-28.6-52.4-56.1-91.8-72.8-114.3c14.5-3.1,29.4-4.7,44.8-4.7C308.5,41.1,356.6,60.1,394,91.4
		z M169.7,59.3c12.6,16.3,42.6,57.2,74.9,115.4C163.5,201.1,84.8,205.6,47,206C62.8,140.2,108.9,86,169.7,59.3z M41.3,247.2
		c0.4,0,0.8,0,1.2,0c26.1,0,74-1.8,130.3-12c32.1-5.9,62.6-13.8,91.2-23.5c7.4,14.8,14.8,30.5,22,46.9
		c-40,12.9-73.8,31.4-100.6,49.9c-44.9,30.9-76.3,65.2-93.4,86.4c-31.8-37.5-51-85.9-51-138.7C41.1,253,41.2,250.1,41.3,247.2z
		 M121.7,423.6c14.8-18.6,44.8-52.5,88.3-82.2c29.6-20.2,60.1-35.2,91.6-45c18.3,47.3,33.9,99.7,43.2,155.2
		c-27.1,12.4-57.2,19.3-88.8,19.3C205.2,470.9,158.5,453.2,121.7,423.6z M382.6,429.5c-9.6-51-23.9-99-40.4-142.8
		c40.6-6.9,82.6-5.4,125.8,4.2C458.7,347.6,427.2,396.9,382.6,429.5z"/>
</g>
</svg>
