<?xml version="1.0" encoding="utf-8"?>
<!-- Generator: Adobe Illustrator 24.1.2, SVG Export Plug-In . SVG Version: 6.00 Build 0)  -->
<svg version="1.1" id="Layer_1" xmlns:svgjs="http://svgjs.com/svgjs"
	 xmlns="http://www.w3.org/2000/svg" xmlns:xlink="http://www.w3.org/1999/xlink" x="0px" y="0px" viewBox="0 0 512 512"
	 style="enable-background:new 0 0 512 512;" xml:space="preserve">
<style type="text/css">
	.st0{fill:#FFFFFF;}
</style>
<g>
	<g>
		<g>
			<path class="st0" d="M418.5,185.1l-150-180c-5.7-6.8-19.3-6.8-25,0l-150,180c-8.2,9.8-1.2,24.6,11.5,24.6h75V377
				c0,8.3,6.7,15,15,15h122c8.3,0,15-6.7,15-15V209.7h75C419.7,209.7,426.7,194.9,418.5,185.1z"/>
		</g>
	</g>
	<g>
		<g>
			<path class="st0" d="M497,302h-60c-8.3,0-15,6.7-15,15v105H90V317c0-8.3-6.7-15-15-15H15c-8.3,0-15,6.7-15,15v150
				c0,24.8,20.2,45,45,45h422c24.8,0,45-20.2,45-45V317C512,308.7,505.3,302,497,302z"/>
		</g>
	</g>
</g>
</svg>
