<?xml version="1.0" encoding="utf-8"?>
<!-- Generator: Adobe Illustrator 24.1.2, SVG Export Plug-In . SVG Version: 6.00 Build 0)  -->
<svg version="1.1" id="Layer_1" xmlns="http://www.w3.org/2000/svg" xmlns:xlink="http://www.w3.org/1999/xlink" x="0px" y="0px"
	 viewBox="0 0 68.1 19" style="enable-background:new 0 0 68.1 19;" xml:space="preserve">
<style type="text/css">
	.st0{enable-background:new    ;}
	.st1{fill:#4C4C4C;}
</style>
<g class="st0">
	<path class="st1" d="M-0.2,18.4V0.5h2.3v15.8h8.7v2.1H-0.2z"/>
	<path class="st1" d="M26.8,2.1l2-2.3l1.2,1l-2.1,2.4c0.7,1,1.2,2,1.4,2.7c0.3,1,0.5,2.2,0.5,3.4c0,1.8-0.4,3.5-1.1,4.9
		c-0.7,1.4-1.8,2.5-3.1,3.2s-2.7,1.1-4.2,1.1c-1.1,0-2.1-0.2-3-0.5c-0.7-0.2-1.5-0.7-2.4-1.4l-2,2.3l-1.2-1l2.1-2.4
		c-0.8-1.2-1.3-2.2-1.6-3.1c-0.3-0.9-0.4-1.9-0.4-3.1c0-1.8,0.4-3.5,1.1-4.9c0.7-1.4,1.7-2.5,3-3.3c1.3-0.7,2.8-1.1,4.4-1.1
		c1.1,0,2,0.1,2.8,0.4C25,0.9,25.9,1.4,26.8,2.1z M25.3,3.8c-0.8-0.6-1.4-1-2-1.2c-0.6-0.2-1.2-0.3-2-0.3c-1.8,0-3.2,0.6-4.4,1.8
		s-1.7,3-1.7,5.4c0,0.9,0.1,1.8,0.3,2.5c0.1,0.5,0.4,1.2,0.8,2L25.3,3.8z M26.3,5l-9,10.2c0.6,0.5,1.2,0.9,1.7,1.1
		c0.7,0.3,1.4,0.4,2.2,0.4c1.8,0,3.2-0.6,4.3-1.9c1.1-1.3,1.7-3,1.7-5.3C27.3,7.8,27,6.3,26.3,5z"/>
	<path class="st1" d="M41.1,11.3V9.3l7.5,0v6.6c-1.1,0.9-2.3,1.6-3.6,2.1c-1.2,0.5-2.5,0.7-3.8,0.7c-1.7,0-3.3-0.4-4.7-1.1
		c-1.4-0.8-2.5-1.8-3.2-3.3c-0.7-1.4-1.1-3-1.1-4.8c0-1.7,0.4-3.4,1.1-4.9C34,3.1,35.1,2,36.4,1.3c1.3-0.7,2.9-1.1,4.7-1.1
		c1.3,0,2.4,0.2,3.5,0.6c1,0.4,1.8,1,2.4,1.8c0.6,0.7,1,1.7,1.3,2.9l-2.1,0.6c-0.3-0.9-0.6-1.6-1-2.1s-1-0.9-1.7-1.3
		c-0.7-0.3-1.5-0.5-2.4-0.5c-1.1,0-2,0.2-2.8,0.5C37.5,3,36.9,3.5,36.4,4s-0.8,1.1-1.1,1.8c-0.4,1.1-0.7,2.3-0.7,3.6
		c0,1.6,0.3,2.9,0.8,4c0.5,1.1,1.3,1.9,2.4,2.4c1,0.5,2.1,0.8,3.3,0.8c1,0,2-0.2,3-0.6c1-0.4,1.7-0.8,2.2-1.3v-3.3H41.1z"/>
	<path class="st1" d="M65.2,2.1l2-2.3l1.2,1l-2.1,2.4c0.7,1,1.2,2,1.4,2.7c0.3,1,0.5,2.2,0.5,3.4c0,1.8-0.4,3.5-1.1,4.9
		c-0.7,1.4-1.8,2.5-3.1,3.2s-2.7,1.1-4.2,1.1c-1.1,0-2.1-0.2-3-0.5c-0.7-0.2-1.5-0.7-2.4-1.4l-2,2.3l-1.2-1l2.1-2.4
		c-0.8-1.2-1.3-2.2-1.6-3.1c-0.3-0.9-0.4-1.9-0.4-3.1c0-1.8,0.4-3.5,1.1-4.9c0.7-1.4,1.7-2.5,3-3.3c1.3-0.7,2.8-1.1,4.4-1.1
		c1.1,0,2,0.1,2.8,0.4C63.4,0.9,64.2,1.4,65.2,2.1z M63.7,3.8c-0.8-0.6-1.4-1-2-1.2c-0.6-0.2-1.2-0.3-2-0.3c-1.8,0-3.2,0.6-4.4,1.8
		s-1.7,3-1.7,5.4c0,0.9,0.1,1.8,0.3,2.5c0.1,0.5,0.4,1.2,0.8,2L63.7,3.8z M64.7,5l-9,10.2c0.6,0.5,1.2,0.9,1.7,1.1
		c0.7,0.3,1.4,0.4,2.2,0.4c1.8,0,3.2-0.6,4.3-1.9c1.1-1.3,1.7-3,1.7-5.3C65.7,7.8,65.4,6.3,64.7,5z"/>
</g>
</svg>
